# xmcd CD database file
#
# Track frame offsets:
#	150
#	42053
#	85783
#	109208
#	146360
#	181720
#	223480
#	261940
#	294665
#	320903
#
# Disc length: 4491 seconds
#
# Revision: 0
# Processed by: cddbd v1.5.2PL0 Copyright (c) Steve Scherf et al.
# Submitted via: CDex 1.70beta3
#
DISCID=9811890a
DTITLE=向井滋春 - MUKAI ON THE WING
DYEAR=1991
DGENRE=Jazz
TTITLE0=LAMENT
TTITLE1=BERLIN
TTITLE2=TAMAGAWA BLUES
TTITLE3=FOREVER
TTITLE4=VERA CRUZ
TTITLE5=DINDI
TTITLE6=ALL THE THINGS YOU ARE
TTITLE7=PURPLE FIELD
TTITLE8=WEDDING
TTITLE9=RECADO BOSSA NOVA
EXTD=YEAR: 1991
EXTT0=
EXTT1=
EXTT2=
EXTT3=
EXTT4=
EXTT5=
EXTT6=
EXTT7=
EXTT8=
EXTT9=
PLAYORDER=
